<?xml version="1.0" encoding="utf-8"?>
<!-- Generator: Adobe Illustrator 18.1.1, SVG Export Plug-In . SVG Version: 6.00 Build 0)  -->
<svg version="1.1" id="Layer_1" xmlns="http://www.w3.org/2000/svg" xmlns:xlink="http://www.w3.org/1999/xlink" x="0px" y="0px"
	 viewBox="0 0 320 460" enable-background="new 0 0 320 460" xml:space="preserve">
<g>
	<path d="M117.1,148.2c-3.8,0-7-1.7-9.4-5c-2.4-3.3-3.6-7.5-3.6-12.6c0-1.6,0.2-3.3,0.5-5.2c1.1-6.3,3.7-11.6,7.7-16.1
		c4-4.5,8.3-6.7,12.9-6.7c1.9,0,3.6,0.5,5.2,1.6c1.5,1,2.8,2.6,3.8,4.6c0.5-0.4,1-1.1,1.4-2.2c0.2-0.4,0.5-1.1,0.8-2h1.5l-2.8,15.8
		h-1.5c0-4.8-0.7-8.4-2.2-11.1c-1.5-2.6-3.7-3.9-6.5-3.9c-3.6,0-6.8,2.2-9.7,6.6c-2.5,3.8-4.2,8.2-5.1,13.4c-0.4,2-0.5,4-0.5,6.1
		c0,4,0.7,7.3,2,9.7c1.6,2.8,3.9,4.3,7,4.3c2.8,0,5.1-0.8,7.1-2.5c1.9-1.7,3.2-4.1,3.7-7.2c0.1-0.6,0.2-1.1,0.2-1.6
		c0-1.1-0.4-2-1-2.5c-0.7-0.6-1.9-0.9-3.5-0.9l0.3-1.5h14.8l-0.3,1.5c-2.2,0-3.8,0.5-4.5,1.5c-0.8,1-1.5,3.3-2.2,6.9l-1,5.5
		c-1.5,0-3.1,0.4-4.9,1.1C123,147.3,119.7,148.2,117.1,148.2z"/>
	<path d="M163.2,135c-0.6,3.6-2.2,6.7-4.8,9.3c-2.6,2.6-5.4,3.9-8.4,3.9c-2.6,0-4.7-1-6.3-3c-1.7-2-2.5-4.5-2.5-7.5
		c0-0.4,0-0.8,0-1.1c0-0.3,0.1-0.8,0.2-1.6c0.6-3.6,2.3-6.7,4.9-9.3c2.6-2.6,5.4-3.9,8.4-3.9c2.6,0,4.7,1,6.3,3
		c1.6,2,2.4,4.5,2.4,7.5c0,0.6,0,1.1,0,1.7C163.4,134.4,163.3,134.8,163.2,135z M158.6,135c0.1-0.8,0.2-1.5,0.3-2.1
		c0.1-0.7,0.1-1.3,0.1-1.9c0-2.2-0.4-3.8-1.1-5.1c-0.8-1.2-1.9-1.8-3.5-1.8c-2.1,0-3.9,1.1-5.3,3.2c-1.3,1.9-2.3,4.5-2.9,7.8
		c-0.2,1.4-0.4,2.8-0.4,4.1c0,2.1,0.4,3.8,1.1,5c0.8,1.2,1.9,1.9,3.5,1.9c2,0,3.8-1.1,5.3-3.2C157.1,140.9,158,138.3,158.6,135z"/>
	<path d="M190.5,135c-0.6,3.6-2.2,6.7-4.8,9.3c-2.6,2.6-5.4,3.9-8.4,3.9c-2.6,0-4.7-1-6.3-3c-1.7-2-2.5-4.5-2.5-7.5
		c0-0.4,0-0.8,0-1.1c0-0.3,0.1-0.8,0.2-1.6c0.6-3.6,2.3-6.7,4.9-9.3c2.6-2.6,5.4-3.9,8.4-3.9c2.6,0,4.7,1,6.3,3
		c1.6,2,2.4,4.5,2.4,7.5c0,0.6,0,1.1,0,1.7C190.7,134.4,190.6,134.8,190.5,135z M185.9,135c0.1-0.8,0.2-1.5,0.3-2.1
		c0.1-0.7,0.1-1.3,0.1-1.9c0-2.2-0.4-3.8-1.1-5.1c-0.8-1.2-1.9-1.8-3.5-1.8c-2.1,0-3.9,1.1-5.3,3.2c-1.3,1.9-2.3,4.5-2.9,7.8
		c-0.2,1.4-0.4,2.8-0.4,4.1c0,2.1,0.4,3.8,1.1,5c0.8,1.2,1.9,1.9,3.5,1.9c2,0,3.8-1.1,5.3-3.2C184.4,140.9,185.3,138.3,185.9,135z"
		/>
	<path d="M215.5,114.3c0.2-1,0.4-2,0.5-2.9c0.1-1,0.2-1.8,0.2-2.4c0-1.2-0.2-2-0.8-2.4c-0.5-0.4-1.4-0.6-2.7-0.6l0.2-1.5l8.6-1.8
		l-7,39.8c-0.1,0.4-0.1,0.9-0.1,1.5c0,1,0.3,1.5,0.9,1.5c0.4,0,0.9-0.2,1.5-0.5c0.6-0.4,1.1-0.7,1.4-1.1v1.7
		c-0.7,0.7-1.5,1.3-2.4,1.7c-0.9,0.5-1.7,0.7-2.3,0.7c-1,0-1.8-0.3-2.3-0.8c-0.5-0.6-0.8-1.4-0.9-2.4c-0.9,1-2,1.9-3.3,2.5
		c-1.3,0.7-2.5,1-3.5,1c-2.5,0-4.4-0.9-5.7-2.7c-1.3-1.8-2-4.1-2-7.1c0-0.4,0-0.8,0-1.1c0-0.3,0.1-1.1,0.3-2.3
		c0.7-3.6,2.3-6.7,4.9-9.3c2.6-2.6,5.4-3.9,8.4-3.9c1.6,0,3.1,0.4,4.6,1.1L215.5,114.3z M211.2,138.7l2.2-12.7
		c-0.5-0.5-1.1-0.9-1.6-1.2c-0.8-0.4-1.8-0.6-2.9-0.6c-2,0-3.8,1.1-5.3,3.3c-1.4,2-2.4,4.5-2.9,7.6c-0.2,1.3-0.4,2.6-0.4,3.8
		c0,2,0.4,3.5,1.1,4.7c0.8,1.2,1.9,1.8,3.4,1.8c1.4,0,2.7-0.6,4-1.9C210.1,142.2,210.9,140.6,211.2,138.7z"/>
	<path d="M91.2,214.8c0.9-1.9,2.2-3.5,3.8-4.7c1.6-1.2,3.2-1.8,4.8-1.8c1.7,0,3,0.5,3.8,1.6c0.8,1.1,1.2,2.6,1.2,4.6
		c0,1.2-0.2,2.7-0.5,4.4l-1.8,9.8c0,0.4,0,0.9,0,1.5c0,1,0.3,1.5,0.9,1.5c0.4,0,0.9-0.2,1.5-0.5c0.6-0.4,1-0.7,1.4-1.1v1.7
		c-0.7,0.7-1.5,1.3-2.4,1.7c-0.9,0.5-1.7,0.7-2.3,0.7c-1,0-1.8-0.3-2.4-1c-0.5-0.6-0.8-1.5-0.8-2.7c0-0.2,0-0.7,0-1.3l1.8-10
		c0.3-1.8,0.5-3.2,0.5-4.2c0-2.3-1-3.5-2.9-3.5c-1.4,0-2.8,0.9-4.1,2.6c-1.7,2.1-2.8,4.9-3.4,8.4l-1.9,10.7h-4l2.5-14.1
		c0.3-1.8,0.5-3.2,0.5-4.2c0-2.3-1-3.5-2.9-3.5c-1.4,0-2.8,0.9-4.1,2.6c-1.7,2.1-2.8,4.9-3.4,8.4l-2,10.7l-4,0l3.5-19.4
		c0-0.4,0-0.9,0-1.5c0-1-0.3-1.5-0.9-1.5c-0.4,0-0.9,0.2-1.5,0.5c-0.6,0.4-1,0.7-1.4,1.1V211c0.6-0.7,1.4-1.3,2.3-1.7
		c0.9-0.5,1.7-0.7,2.3-0.7c2.2,0,3.2,1.2,3.2,3.7c0,0.3-0.1,0.7-0.2,1.3v0.6c0.9-1.7,2.1-3.1,3.6-4.2s3-1.6,4.5-1.6
		c1.8,0,3.1,0.6,3.8,1.7C90.9,211.1,91.2,212.7,91.2,214.8z"/>
	<path d="M133.2,221.4c-0.6,3.6-2.2,6.7-4.8,9.3c-2.6,2.6-5.4,3.9-8.4,3.9c-2.6,0-4.7-1-6.3-3c-1.7-2-2.5-4.5-2.5-7.5
		c0-0.4,0-0.8,0-1.1c0-0.3,0.1-0.8,0.2-1.6c0.6-3.6,2.3-6.7,4.9-9.3c2.6-2.6,5.4-3.9,8.4-3.9c2.6,0,4.7,1,6.3,3
		c1.6,2,2.4,4.5,2.4,7.5c0,0.6,0,1.1,0,1.7C133.3,220.8,133.2,221.2,133.2,221.4z M128.6,221.4c0.1-0.8,0.2-1.5,0.3-2.1
		c0.1-0.7,0.1-1.3,0.1-1.9c0-2.2-0.4-3.8-1.1-5.1c-0.8-1.2-1.9-1.8-3.5-1.8c-2.1,0-3.9,1.1-5.3,3.2c-1.3,1.9-2.3,4.5-2.9,7.8
		c-0.2,1.4-0.4,2.8-0.4,4.1c0,2.1,0.4,3.8,1.1,5c0.8,1.2,1.9,1.9,3.5,1.9c2,0,3.8-1.1,5.3-3.2C127,227.3,128,224.7,128.6,221.4z"/>
	<path d="M146.4,215.2c1.9-4.6,4.3-7,7.3-7c1.3,0,2.2,0.4,2.8,1.1c0.6,0.7,0.9,1.6,0.9,2.6c0,0.4,0,0.8-0.1,1.1
		c-0.1,0.4-0.3,0.8-0.7,1.2c-0.6,0.6-1.3,0.9-2.1,0.9c-0.6,0-1.1-0.2-1.5-0.7c-0.4-0.4-0.5-1-0.4-1.6c0-0.2,0-0.3,0-0.4
		c0-0.2,0-0.3,0-0.3c0-0.5-0.2-0.8-0.7-0.8c-1.2,0-2.4,1.2-3.7,3.6c-1.5,2.8-2.7,6.6-3.6,11.4l-1.2,6.9h-3.8l3.5-19.4
		c0-0.4,0-0.9,0-1.5c0-1-0.3-1.5-0.9-1.5c-0.4,0-0.9,0.2-1.5,0.5c-0.6,0.4-1,0.7-1.4,1.1V211c0.6-0.7,1.4-1.3,2.3-1.7
		c0.9-0.5,1.7-0.7,2.3-0.7c1,0,1.7,0.3,2.2,1c0.5,0.6,0.7,1.5,0.7,2.6c0,0.2,0,0.5,0,0.8s0,0.5,0,0.7L146.4,215.2z"/>
	<path d="M164,233.4l-4,0l3.5-19.4c0-0.4,0-0.9,0-1.5c0-1-0.3-1.5-0.9-1.5c-0.4,0-0.9,0.2-1.5,0.5c-0.6,0.4-1,0.7-1.4,1.1V211
		c0.6-0.7,1.4-1.3,2.3-1.7c0.9-0.5,1.7-0.7,2.3-0.7c2.2,0,3.2,1.2,3.2,3.7c0,0.3,0,0.7,0,1.3l-0.2,0.6c1.1-1.8,2.3-3.2,3.8-4.2
		c1.5-1,3-1.6,4.5-1.6c1.8,0,3.2,0.6,4.1,1.9c0.9,1.2,1.3,2.9,1.3,5.1c0,1.2-0.1,2.4-0.3,3.7l-1.8,9.8c0,0.4,0,0.9,0,1.5
		c0,1,0.3,1.5,0.9,1.5c0.4,0,0.9-0.2,1.5-0.5c0.6-0.4,1-0.7,1.4-1.1v1.7c-0.7,0.7-1.5,1.3-2.4,1.7c-0.9,0.5-1.7,0.7-2.3,0.7
		c-1,0-1.8-0.3-2.4-1c-0.5-0.6-0.8-1.5-0.8-2.7c0-0.2,0-0.7,0-1.3l1.8-10c0.2-1.3,0.4-2.5,0.4-3.5c0-1.4-0.3-2.4-0.8-3.1
		c-0.5-0.7-1.4-1-2.6-1c-1.3,0-2.8,0.9-4.2,2.7c-1.7,2.1-2.9,4.9-3.5,8.3L164,233.4z"/>
	<path d="M193.6,228.8c0,0.4,0,0.9,0,1.5c0,1,0.3,1.5,0.9,1.5c0.4,0,0.9-0.2,1.5-0.5c0.6-0.4,1-0.7,1.4-1.1v1.7
		c-0.7,0.7-1.5,1.3-2.4,1.7c-0.9,0.5-1.7,0.7-2.3,0.7c-1,0-1.8-0.3-2.4-1c-0.5-0.6-0.8-1.5-0.8-2.7c0-0.2,0-0.7,0-1.3l2.9-15.3
		c0-0.4,0-0.9,0-1.5c0-1-0.3-1.5-0.9-1.5c-0.4,0-0.9,0.2-1.5,0.5c-0.6,0.4-1,0.7-1.4,1.1V211c0.6-0.7,1.4-1.3,2.3-1.7
		c0.9-0.5,1.7-0.7,2.3-0.7c2.2,0,3.2,1.2,3.2,3.7c0,0.3,0,0.7,0,1.3L193.6,228.8z M199.7,197.9c-0.1,0.7-0.5,1.3-1,1.8
		c-0.6,0.5-1.2,0.8-2,0.8c-0.7,0-1.3-0.2-1.7-0.7c-0.4-0.5-0.5-1.1-0.4-1.8c0.1-0.7,0.5-1.3,1-1.8c0.6-0.5,1.2-0.8,2-0.8
		s1.3,0.2,1.7,0.7C199.7,196.6,199.8,197.2,199.7,197.9z"/>
	<path d="M207.7,233.4l-4,0l3.5-19.4c0-0.4,0-0.9,0-1.5c0-1-0.3-1.5-0.9-1.5c-0.4,0-0.9,0.2-1.5,0.5c-0.6,0.4-1,0.7-1.4,1.1V211
		c0.6-0.7,1.4-1.3,2.3-1.7c0.9-0.5,1.7-0.7,2.3-0.7c2.2,0,3.2,1.2,3.2,3.7c0,0.3,0,0.7,0,1.3l-0.2,0.6c1.1-1.8,2.3-3.2,3.8-4.2
		c1.5-1,3-1.6,4.5-1.6c1.8,0,3.2,0.6,4.1,1.9c0.9,1.2,1.3,2.9,1.3,5.1c0,1.2-0.1,2.4-0.3,3.7l-1.8,9.8c0,0.4,0,0.9,0,1.5
		c0,1,0.3,1.5,0.9,1.5c0.4,0,0.9-0.2,1.5-0.5c0.6-0.4,1-0.7,1.4-1.1v1.7c-0.7,0.7-1.5,1.3-2.4,1.7c-0.9,0.5-1.7,0.7-2.3,0.7
		c-1,0-1.8-0.3-2.4-1c-0.5-0.6-0.8-1.5-0.8-2.7c0-0.2,0-0.7,0-1.3l1.8-10c0.2-1.3,0.4-2.5,0.4-3.5c0-1.4-0.3-2.4-0.8-3.1
		c-0.5-0.7-1.4-1-2.6-1c-1.3,0-2.8,0.9-4.2,2.7c-1.7,2.1-2.9,4.9-3.5,8.3L207.7,233.4z"/>
	<path d="M246.2,210.1c1.6-1.2,3.2-1.9,4.7-1.9c1.1,0,2,0.3,2.5,1c0.6,0.7,0.8,1.4,0.7,2.2c-0.1,0.5-0.3,1-0.8,1.5s-0.9,0.7-1.4,0.7
		c-1,0-1.5-0.5-1.7-1.4s-0.7-1.4-1.6-1.4c-0.4,0-1,0.2-1.6,0.6c0.8,1.2,1.2,2.8,1.2,4.5c0,0.7-0.1,1.4-0.2,2.1
		c-0.5,2.6-1.7,4.9-3.5,6.8c-1.9,1.9-3.9,2.9-6.2,2.9c-1.4,0-2.7,0.4-4.1,1c-1.4,0.7-2.2,1.5-2.3,2.4c-0.2,0.9,0.5,1.7,1.9,2.2
		c1.1,0.4,2.4,0.7,3.8,0.7c3.8,0.3,6.6,1.3,8.5,2.8c1.6,1.4,2.5,3.1,2.5,5.1c0,0.3,0,0.8-0.1,1.3c-0.5,2.8-2,5-4.6,6.7
		c-2.6,1.7-5.6,2.5-9.1,2.5c-3.3,0-5.9-0.6-7.9-1.9c-1.9-1.2-2.9-2.8-2.9-4.6c0-0.4,0-0.6,0.1-0.8c0.2-1.1,0.7-2.2,1.6-3.1
		c0.9-1,2.2-1.8,4-2.6l1.1,0.8c-2,1.7-3.1,3.2-3.3,4.7c-0.3,1.6,0.4,2.9,2.2,3.9c1.5,0.9,3.4,1.3,5.6,1.3c2.2,0,4.3-0.5,6.2-1.6
		c1.9-1,3-2.4,3.2-4c0-0.2,0.1-0.5,0.1-0.9c0-1.4-0.7-2.5-2-3.2c-1.4-0.7-3.4-1.2-6.1-1.5c-2.7-0.3-4.8-0.9-6.4-1.8
		s-2.3-2.2-2.3-3.8c0-0.4,0-0.7,0.1-1c0.2-1.3,1-2.4,2.2-3.5c1.2-1.1,2.7-1.8,4.5-2.3c-1.9-1.5-2.8-3.7-2.8-6.6
		c0-0.6,0.1-1.2,0.2-1.9c0.5-2.7,1.7-5,3.6-6.9c1.9-1.9,4-2.9,6.2-2.9C243.6,208.3,245.1,208.9,246.2,210.1z M244.2,218
		c0.2-1.1,0.3-2.1,0.3-2.9c0-1.5-0.2-2.6-0.8-3.4s-1.3-1.2-2.4-1.2c-1.4,0-2.5,0.7-3.5,2.1c-1,1.4-1.6,3.2-2,5.4
		c-0.2,0.9-0.2,1.9-0.2,2.8c0,1.4,0.2,2.6,0.8,3.4c0.5,0.8,1.3,1.3,2.4,1.3c1.4,0,2.5-0.7,3.5-2.2
		C243.2,222.1,243.8,220.3,244.2,218z"/>
	<path d="M82.1,296.5c1.6-1.2,3.2-1.9,4.7-1.9c1.1,0,2,0.3,2.5,1c0.6,0.7,0.8,1.4,0.7,2.2c-0.1,0.5-0.3,1-0.8,1.5s-0.9,0.7-1.4,0.7
		c-1,0-1.5-0.5-1.7-1.4c-0.2-1-0.7-1.4-1.6-1.4c-0.4,0-1,0.2-1.6,0.6c0.8,1.2,1.2,2.8,1.2,4.5c0,0.7-0.1,1.4-0.2,2.1
		c-0.5,2.6-1.7,4.9-3.5,6.8c-1.9,1.9-3.9,2.9-6.2,2.9c-1.4,0-2.7,0.4-4.1,1c-1.4,0.7-2.2,1.5-2.3,2.4c-0.2,0.9,0.5,1.7,1.9,2.2
		c1.1,0.4,2.4,0.7,3.8,0.7c3.8,0.3,6.6,1.3,8.5,2.8c1.6,1.4,2.5,3.1,2.5,5.1c0,0.3,0,0.8-0.1,1.3c-0.5,2.8-2,5-4.6,6.7
		c-2.6,1.7-5.6,2.5-9.1,2.5c-3.3,0-5.9-0.6-7.9-1.9c-1.9-1.2-2.9-2.8-2.9-4.6c0-0.4,0-0.6,0.1-0.8c0.2-1.1,0.7-2.2,1.6-3.1
		c0.9-1,2.2-1.8,4-2.6l1.1,0.8c-2,1.7-3.1,3.2-3.3,4.7c-0.3,1.6,0.4,2.9,2.2,3.9c1.5,0.9,3.4,1.3,5.6,1.3c2.2,0,4.3-0.5,6.2-1.6
		c1.9-1,3-2.4,3.2-4c0-0.2,0.1-0.5,0.1-0.9c0-1.4-0.7-2.5-2-3.2c-1.4-0.7-3.4-1.2-6.1-1.5c-2.7-0.3-4.8-0.9-6.4-1.8
		c-1.6-0.9-2.3-2.2-2.3-3.8c0-0.4,0-0.7,0.1-1c0.2-1.3,1-2.4,2.2-3.5c1.2-1.1,2.7-1.8,4.5-2.3c-1.9-1.5-2.8-3.7-2.8-6.6
		c0-0.6,0.1-1.2,0.2-1.9c0.5-2.7,1.7-5,3.6-6.9c1.9-1.9,4-2.9,6.2-2.9C79.4,294.7,80.9,295.3,82.1,296.5z M80.1,304.4
		c0.2-1.1,0.3-2.1,0.3-2.9c0-1.5-0.3-2.6-0.8-3.4c-0.5-0.8-1.3-1.2-2.4-1.2c-1.4,0-2.5,0.7-3.5,2.1c-1,1.4-1.6,3.2-2,5.4
		c-0.2,0.9-0.2,1.9-0.2,2.8c0,1.4,0.2,2.6,0.8,3.4c0.5,0.8,1.3,1.3,2.4,1.3c1.4,0,2.5-0.7,3.5-2.2C79,308.5,79.7,306.7,80.1,304.4z"
		/>
	<path d="M111.9,307.8c-0.6,3.6-2.2,6.7-4.8,9.3c-2.6,2.6-5.4,3.9-8.4,3.9c-2.6,0-4.7-1-6.3-3c-1.7-2-2.5-4.5-2.5-7.5
		c0-0.4,0-0.8,0-1.1c0-0.3,0.1-0.8,0.2-1.6c0.6-3.6,2.3-6.7,4.9-9.3c2.6-2.6,5.4-3.9,8.4-3.9c2.6,0,4.7,1,6.3,3
		c1.6,2,2.4,4.5,2.4,7.5c0,0.6,0,1.1,0,1.7C112.1,307.2,112,307.6,111.9,307.8z M107.3,307.8c0.1-0.8,0.2-1.5,0.3-2.1
		c0.1-0.7,0.1-1.3,0.1-1.9c0-2.2-0.4-3.8-1.1-5.1c-0.8-1.2-1.9-1.8-3.5-1.8c-2.1,0-3.9,1.1-5.3,3.2c-1.3,1.9-2.3,4.5-2.9,7.8
		c-0.2,1.4-0.4,2.8-0.4,4.1c0,2.1,0.4,3.8,1.1,5c0.8,1.2,1.9,1.9,3.5,1.9c2,0,3.8-1.1,5.3-3.2C105.8,313.7,106.7,311.1,107.3,307.8z
		"/>
	<path d="M125.2,301.6c1.9-4.6,4.3-7,7.3-7c1.3,0,2.2,0.4,2.8,1.1c0.6,0.7,0.9,1.6,0.9,2.6c0,0.4,0,0.8-0.1,1.1
		c-0.1,0.4-0.3,0.8-0.7,1.2c-0.6,0.6-1.3,0.9-2.1,0.9c-0.6,0-1.1-0.2-1.5-0.7c-0.4-0.4-0.5-1-0.4-1.6c0-0.2,0-0.3,0-0.4
		c0-0.2,0-0.3,0-0.3c0-0.5-0.2-0.8-0.7-0.8c-1.2,0-2.4,1.2-3.7,3.6c-1.5,2.8-2.7,6.6-3.6,11.4l-1.2,6.9h-3.8l3.5-19.4
		c0-0.4,0-0.9,0-1.5c0-1-0.3-1.5-0.9-1.5c-0.4,0-0.9,0.2-1.5,0.5c-0.6,0.4-1,0.7-1.4,1.1v-1.7c0.6-0.7,1.4-1.3,2.3-1.7
		c0.9-0.5,1.7-0.7,2.3-0.7c1,0,1.7,0.3,2.2,1c0.5,0.6,0.7,1.5,0.7,2.6c0,0.2,0,0.5,0,0.8s0,0.5,0,0.7L125.2,301.6z"/>
	<path d="M152.4,296.5c1.6-1.2,3.2-1.9,4.7-1.9c1.1,0,2,0.3,2.5,1c0.6,0.7,0.8,1.4,0.7,2.2c-0.1,0.5-0.3,1-0.8,1.5s-0.9,0.7-1.4,0.7
		c-1,0-1.5-0.5-1.7-1.4c-0.2-1-0.7-1.4-1.6-1.4c-0.4,0-1,0.2-1.6,0.6c0.8,1.2,1.2,2.8,1.2,4.5c0,0.7-0.1,1.4-0.2,2.1
		c-0.5,2.6-1.7,4.9-3.5,6.8c-1.9,1.9-3.9,2.9-6.2,2.9c-1.4,0-2.7,0.4-4.1,1c-1.4,0.7-2.2,1.5-2.3,2.4c-0.2,0.9,0.5,1.7,1.9,2.2
		c1.1,0.4,2.4,0.7,3.8,0.7c3.8,0.3,6.6,1.3,8.5,2.8c1.6,1.4,2.5,3.1,2.5,5.1c0,0.3,0,0.8-0.1,1.3c-0.5,2.8-2,5-4.6,6.7
		c-2.6,1.7-5.6,2.5-9.1,2.5c-3.3,0-5.9-0.6-7.9-1.9c-1.9-1.2-2.9-2.8-2.9-4.6c0-0.4,0-0.6,0.1-0.8c0.2-1.1,0.7-2.2,1.6-3.1
		c0.9-1,2.2-1.8,4-2.6l1.1,0.8c-2,1.7-3.1,3.2-3.3,4.7c-0.3,1.6,0.4,2.9,2.2,3.9c1.5,0.9,3.4,1.3,5.6,1.3c2.2,0,4.3-0.5,6.2-1.6
		c1.9-1,3-2.4,3.2-4c0-0.2,0.1-0.5,0.1-0.9c0-1.4-0.7-2.5-2-3.2c-1.4-0.7-3.4-1.2-6.1-1.5c-2.7-0.3-4.8-0.9-6.4-1.8
		c-1.6-0.9-2.3-2.2-2.3-3.8c0-0.4,0-0.7,0.1-1c0.2-1.3,1-2.4,2.2-3.5c1.2-1.1,2.7-1.8,4.5-2.3c-1.9-1.5-2.8-3.7-2.8-6.6
		c0-0.6,0.1-1.2,0.2-1.9c0.5-2.7,1.7-5,3.6-6.9c1.9-1.9,4-2.9,6.2-2.9C149.8,294.7,151.3,295.3,152.4,296.5z M150.5,304.4
		c0.2-1.1,0.3-2.1,0.3-2.9c0-1.5-0.3-2.6-0.8-3.4c-0.5-0.8-1.3-1.2-2.4-1.2c-1.4,0-2.5,0.7-3.5,2.1c-1,1.4-1.6,3.2-2,5.4
		c-0.2,0.9-0.2,1.9-0.2,2.8c0,1.4,0.2,2.6,0.8,3.4c0.5,0.8,1.3,1.3,2.4,1.3c1.4,0,2.5-0.7,3.5-2.2
		C149.4,308.5,150.1,306.7,150.5,304.4z"/>
	<path d="M164.4,311c0,2.3,0.5,4.1,1.4,5.3c0.9,1.2,2.4,1.8,4.3,1.8c0.9,0,2-0.3,3.2-0.9c1.2-0.6,2.3-1.4,3.3-2.4l0.7,1.4
		c-1.2,1.4-2.6,2.5-4.3,3.4c-1.7,0.9-3.3,1.4-4.8,1.4c-2.5,0-4.4-0.9-5.9-2.8c-1.4-1.9-2.1-4.3-2.1-7.2c0-0.9,0.1-2,0.3-3.2
		c0.7-3.7,2.3-6.8,4.7-9.4c2.5-2.5,5-3.8,7.6-3.8c1.6,0,2.9,0.5,3.9,1.4c1,0.9,1.5,2.2,1.5,3.7c0,0.2,0,0.6-0.1,1.1
		c-0.4,2.1-1.6,4-3.8,5.7C171.9,308.6,168.5,310.1,164.4,311z M164.6,309c2.9-0.7,5.3-1.8,7.1-3.5c1.6-1.4,2.5-2.9,2.8-4.5
		c0-0.2,0.1-0.3,0.1-0.4c0-0.2,0-0.3,0-0.4c0-1.7-0.7-2.6-2.2-2.6c-1.7,0-3.3,0.9-4.7,2.8s-2.4,4.4-3,7.5L164.6,309z"/>
	<path d="M204.8,307.8c-0.6,3.6-2.2,6.7-4.8,9.3c-2.6,2.6-5.4,3.9-8.4,3.9c-2.6,0-4.7-1-6.3-3c-1.7-2-2.5-4.5-2.5-7.5
		c0-0.4,0-0.8,0-1.1c0-0.3,0.1-0.8,0.2-1.6c0.6-3.6,2.3-6.7,4.9-9.3c2.6-2.6,5.4-3.9,8.4-3.9c2.6,0,4.7,1,6.3,3
		c1.6,2,2.4,4.5,2.4,7.5c0,0.6,0,1.1,0,1.7C204.9,307.2,204.9,307.6,204.8,307.8z M200.2,307.8c0.1-0.8,0.2-1.5,0.3-2.1
		c0.1-0.7,0.1-1.3,0.1-1.9c0-2.2-0.4-3.8-1.1-5.1c-0.8-1.2-1.9-1.8-3.5-1.8c-2.1,0-3.9,1.1-5.3,3.2c-1.3,1.9-2.3,4.5-2.9,7.8
		c-0.2,1.4-0.4,2.8-0.4,4.1c0,2.1,0.4,3.8,1.1,5c0.8,1.2,1.9,1.9,3.5,1.9c2,0,3.8-1.1,5.3-3.2C198.6,313.7,199.6,311.1,200.2,307.8z
		"/>
	<path d="M234,318.2c-0.7,0.7-1.5,1.3-2.4,1.7c-0.9,0.5-1.7,0.7-2.3,0.7c-1,0-1.8-0.3-2.4-1c-0.5-0.6-0.8-1.5-0.8-2.7
		c0-0.2,0-0.7,0-1.3l0.2-0.6c-1.1,1.8-2.4,3.3-3.8,4.3c-1.5,1-3,1.6-4.6,1.6c-1.8,0-3.2-0.6-4.1-1.9c-0.9-1.2-1.4-3-1.4-5.2
		c0-1.2,0.1-2.4,0.3-3.7l1.9-9.8c0-0.4,0-0.9,0-1.5c0-1-0.3-1.5-0.9-1.5c-0.4,0-0.9,0.2-1.5,0.5c-0.6,0.4-1,0.7-1.4,1.1v-1.7
		c0.6-0.7,1.4-1.3,2.3-1.7c0.9-0.5,1.7-0.7,2.3-0.7c2.2,0,3.2,1.2,3.2,3.7c0,0.3,0,0.7,0,1.3l-1.9,10c-0.2,1.3-0.3,2.4-0.3,3.4
		c0,1.4,0.3,2.4,0.8,3.2c0.5,0.7,1.4,1.1,2.6,1.1c1.3,0,2.7-0.9,4.2-2.7c1.7-2.2,2.9-4.9,3.5-8.4l2-10.7l4,0l-3.5,19.4
		c0,0.4,0,0.9,0,1.5c0,1,0.3,1.5,0.9,1.5c0.4,0,0.9-0.2,1.5-0.5c0.6-0.4,1.1-0.7,1.4-1.1V318.2z"/>
	<path d="M251.2,313.6c-0.4,2.3-1.4,4.2-3.1,5.5c-1.5,1.2-3.2,1.9-5.2,1.9c-2.1,0-3.7-0.5-4.8-1.6c-1.1-1.1-1.6-2.2-1.4-3.3
		c0.2-1.1,0.9-1.7,2-1.7c0.7,0,1.2,0.7,1.7,2.1c0.4,1.4,1.6,2.1,3.4,2.1c1,0,1.9-0.3,2.6-1c0.7-0.7,1.1-1.3,1.2-1.8
		c0.1-0.5,0.1-0.9,0.1-1.2c0-0.8-0.2-1.7-0.7-2.5c-0.4-0.8-0.9-1.5-1.5-2l-2.6-2.5c-0.7-0.6-1.3-1.5-1.7-2.6
		c-0.5-1.1-0.7-2.1-0.7-3.1c0-0.4,0-0.8,0.1-1c0.3-1.8,1.1-3.3,2.3-4.5c1.4-1.4,3.3-2,5.5-2c1.8,0,3.1,0.5,4,1.5
		c0.8,0.8,1.1,1.8,0.9,2.8c-0.2,1-0.7,1.4-1.6,1.4c-0.8,0-1.3-0.6-1.6-1.9c-0.3-1.2-1.2-1.9-2.5-1.9c-0.8,0-1.6,0.3-2.3,0.9
		c-0.7,0.6-1.1,1.1-1.2,1.7c-0.1,0.6-0.2,1-0.2,1.4c0,0.6,0.2,1.2,0.5,1.8c0.3,0.6,0.9,1.2,1.7,2l2.6,2.5c1.7,1.6,2.5,3.4,2.5,5.6
		C251.3,312.8,251.3,313.2,251.2,313.6z"/>
</g>
</svg>
